<svg id="Calque_1" data-name="Calque 1" xmlns="http://www.w3.org/2000/svg" viewBox="0 0 1279.61 823.73"><defs><style>.cls-1{fill:#f9dc32;}</style></defs><title>bulle</title><path class="cls-1" d="M955,375C926.9,487.4,812.1,581.7,654.3,622.1c-57.3,14.6-109.2,21-172.3,21-56,0-105.4-5.5-155.8-17.2a89.82,89.82,0,0,0-10.4-1.9c-1.2,0-10.7,4.7-21.2,10.4C240,664.1,178.9,691.9,130,709.3c-56.2,20-119.1,33.5-127.5,27.3-1.7-1.2-1.6-1.6,3-6.5,2.7-2.8,13-11.8,22.9-19.8,48.1-39,83.1-72.9,108.8-105.3,11.3-14.2,26.8-38.1,26.8-41.3,0-.8-3.5-3.7-7.7-6.3C110.2,528.9,70.7,491.8,44.2,452,29,429.2,14.6,396.3,9.1,372c-13-58-3.2-115.9,28.6-169.2C103.3,92.8,256.1,15.1,430.5,3c9.4-.7,21.1-1.5,26-2a389.85,389.85,0,0,1,50.7,0c6.8.5,19.3,1.4,27.8,2C691.3,14.1,830.6,77.5,905.5,171.5c26.1,32.8,45.2,72.9,51.9,109C963.1,310.8,962.2,346.5,955,375Z" transform="translate(-1.49 -0.17)"/><path class="cls-1" d="M1281.1,820.5l-2.2,1.7c-2.4,2-4.6,2.2-9.8.8-2-.5-9.3-2.3-16.2-3.9-41.5-9.8-95.8-34.4-151.6-68.7-8.3-5.2-16-9.4-17.1-9.4a64.73,64.73,0,0,0-10.1,2.5c-17,5-48,11.1-69.1,13.4-38.5,4.3-70.5,4-111-1-76-9.4-148.3-40.1-192.2-81.8l-8.2-7.8L707,662c57.4-18,116.8-47.6,160.9-80.2,57.1-42.2,100.8-95.4,123.7-150.5,10.7-25.8,15.8-45.4,21-82.1.5-3.1.7-3.2,3.7-2.7,1.8.3,7.5,1.2,12.7,2,78.8,12.7,151.8,49.4,192.9,97,37.5,43.5,50.6,91.8,38.1,141.1-9.3,37-31.9,69.2-70.4,100.3l-7.8,6.4.6,4.9a98.92,98.92,0,0,0,3.6,13.4c9.5,28,34.2,57,80.2,94.2a114.13,114.13,0,0,1,11.3,10.4Z" transform="translate(-1.49 -0.17)"/></svg>