<svg id="Capa_1" data-name="Capa 1" xmlns="http://www.w3.org/2000/svg" viewBox="0 0 88.55 65.51"><defs><style>.cls-1{fill:#f9dc32;}</style></defs><title>sound-off</title><path class="cls-1" d="M46.55,75.52a4.21,4.21,0,0,1-2.43,3.82,4.26,4.26,0,0,1-1.8.41,4.2,4.2,0,0,1-2.69-1L16.53,59.63H4.22A4.22,4.22,0,0,1,0,55.41V38.58a4.22,4.22,0,0,1,4.22-4.23H16.53l23.1-19.14a4.23,4.23,0,0,1,6.92,3.25V75.52ZM52.42,63l-2.25-2.26a1.94,1.94,0,0,1,0-2.75L83,25.19a1.94,1.94,0,0,1,2.75,0L88,27.45a2,2,0,0,1,0,2.75L55.17,63A1.94,1.94,0,0,1,52.42,63ZM50,27.62l2.16-2.17a1.94,1.94,0,0,1,2.75,0L87.73,58.26a2,2,0,0,1,0,2.75l-2.17,2.17a1.94,1.94,0,0,1-2.75,0L50,30.37A1.94,1.94,0,0,1,50,27.62Z" transform="translate(0 -14.24)"/></svg>