<svg id="Capa_1" data-name="Capa 1" xmlns="http://www.w3.org/2000/svg" viewBox="0 0 93.04 73.91"><defs><style>.cls-1{fill:#f9dc32;}</style></defs><title>sound-on</title><path class="cls-1" d="M46.55,75.52a4.21,4.21,0,0,1-2.43,3.82,4.26,4.26,0,0,1-1.8.41,4.2,4.2,0,0,1-2.69-1L16.53,59.63H4.22A4.22,4.22,0,0,1,0,55.41V38.58a4.22,4.22,0,0,1,4.22-4.23H16.53l23.1-19.14a4.23,4.23,0,0,1,6.92,3.25V75.52Zm16.23-6.6h-.3a4.22,4.22,0,0,1-3-1.24l-.56-.56a4.23,4.23,0,0,1-.41-5.51,24.57,24.57,0,0,0-.65-30.1,4.22,4.22,0,0,1,.29-5.65l.56-.57a4.17,4.17,0,0,1,3.2-1.23A4.25,4.25,0,0,1,65,25.61a33.86,33.86,0,0,1,.88,41.62A4.23,4.23,0,0,1,62.78,68.92ZM80.25,82a4.23,4.23,0,0,1-3,1.49H77a4.25,4.25,0,0,1-3-1.23l-.55-.56a4.22,4.22,0,0,1-.25-5.7,45,45,0,0,0-.74-58.83,4.23,4.23,0,0,1,.17-5.79l.55-.55a4.09,4.09,0,0,1,3.12-1.24,4.19,4.19,0,0,1,3,1.41,54.25,54.25,0,0,1,.89,71Z" transform="translate(0 -9.56)"/></svg>